<mxfile host="app.diagrams.net" agent="Mozilla/5.0 (Windows NT 10.0; Win64; x64) AppleWebKit/537.36 (KHTML, like Gecko) Chrome/120.0.0.0 Safari/537.36" version="26.2.14">
  <diagram name="Page-1" id="IM-IHvbNoYmGeMHSFhR2">
    <mxGraphModel dx="365" dy="428" grid="1" gridSize="10" guides="1" tooltips="1" connect="1" arrows="1" fold="1" page="1" pageScale="1" pageWidth="850" pageHeight="1100" math="0" shadow="0">
      <root>
        <mxCell id="0" />
        <mxCell id="1" parent="0" />
        <mxCell id="bTtYold4a_pQscxSpjKW-1" value="mahasiswa" style="ellipse;whiteSpace=wrap;html=1;" vertex="1" parent="1">
          <mxGeometry x="140" y="200" width="120" height="80" as="geometry" />
        </mxCell>
        <mxCell id="bTtYold4a_pQscxSpjKW-2" value="sistem seleksi beasiswa" style="rounded=0;whiteSpace=wrap;html=1;" vertex="1" parent="1">
          <mxGeometry x="370" y="210" width="120" height="60" as="geometry" />
        </mxCell>
        <mxCell id="bTtYold4a_pQscxSpjKW-3" value="" style="endArrow=classic;html=1;rounded=0;entryX=0;entryY=0.25;entryDx=0;entryDy=0;exitX=0.961;exitY=0.304;exitDx=0;exitDy=0;exitPerimeter=0;" edge="1" parent="1" source="bTtYold4a_pQscxSpjKW-1" target="bTtYold4a_pQscxSpjKW-2">
          <mxGeometry width="50" height="50" relative="1" as="geometry">
            <mxPoint x="260" y="225" as="sourcePoint" />
            <mxPoint x="380" y="210" as="targetPoint" />
          </mxGeometry>
        </mxCell>
        <mxCell id="bTtYold4a_pQscxSpjKW-7" value="" style="endArrow=none;html=1;rounded=0;exitX=1;exitY=0.25;exitDx=0;exitDy=0;" edge="1" parent="1" source="bTtYold4a_pQscxSpjKW-2">
          <mxGeometry width="50" height="50" relative="1" as="geometry">
            <mxPoint x="600" y="260" as="sourcePoint" />
            <mxPoint x="640" y="225" as="targetPoint" />
          </mxGeometry>
        </mxCell>
        <mxCell id="bTtYold4a_pQscxSpjKW-10" value="" style="endArrow=none;html=1;rounded=0;" edge="1" parent="1">
          <mxGeometry width="50" height="50" relative="1" as="geometry">
            <mxPoint x="640" y="255" as="sourcePoint" />
            <mxPoint x="640" y="225" as="targetPoint" />
          </mxGeometry>
        </mxCell>
        <mxCell id="bTtYold4a_pQscxSpjKW-11" value="" style="endArrow=classic;html=1;rounded=0;entryX=1;entryY=0.75;entryDx=0;entryDy=0;" edge="1" parent="1" target="bTtYold4a_pQscxSpjKW-2">
          <mxGeometry width="50" height="50" relative="1" as="geometry">
            <mxPoint x="640" y="255" as="sourcePoint" />
            <mxPoint x="650" y="210" as="targetPoint" />
          </mxGeometry>
        </mxCell>
        <mxCell id="bTtYold4a_pQscxSpjKW-15" value="seleksi data:&lt;div&gt;IPK, Semester, Organisasi&lt;/div&gt;" style="text;html=1;align=center;verticalAlign=middle;whiteSpace=wrap;rounded=0;" vertex="1" parent="1">
          <mxGeometry x="490" y="190" width="150" height="30" as="geometry" />
        </mxCell>
        <mxCell id="bTtYold4a_pQscxSpjKW-16" value="kff&lt;div&gt;&lt;br&gt;&lt;/div&gt;" style="text;html=1;align=center;verticalAlign=middle;whiteSpace=wrap;rounded=0;" vertex="1" parent="1">
          <mxGeometry x="500" y="360" width="60" height="30" as="geometry" />
        </mxCell>
        <mxCell id="bTtYold4a_pQscxSpjKW-17" value="" style="endArrow=classic;html=1;rounded=0;exitX=0;exitY=0.75;exitDx=0;exitDy=0;entryX=0.975;entryY=0.7;entryDx=0;entryDy=0;entryPerimeter=0;" edge="1" parent="1" source="bTtYold4a_pQscxSpjKW-2" target="bTtYold4a_pQscxSpjKW-1">
          <mxGeometry width="50" height="50" relative="1" as="geometry">
            <mxPoint x="360" y="350" as="sourcePoint" />
            <mxPoint x="410" y="300" as="targetPoint" />
          </mxGeometry>
        </mxCell>
        <mxCell id="bTtYold4a_pQscxSpjKW-18" value="data formulir" style="text;html=1;align=center;verticalAlign=middle;whiteSpace=wrap;rounded=0;" vertex="1" parent="1">
          <mxGeometry x="240" y="190" width="150" height="30" as="geometry" />
        </mxCell>
        <mxCell id="bTtYold4a_pQscxSpjKW-19" value="hasil seleksi" style="text;html=1;align=center;verticalAlign=middle;whiteSpace=wrap;rounded=0;" vertex="1" parent="1">
          <mxGeometry x="490" y="260" width="150" height="30" as="geometry" />
        </mxCell>
        <mxCell id="bTtYold4a_pQscxSpjKW-20" value="Lulus/ Tidak Lulus" style="text;html=1;align=center;verticalAlign=middle;whiteSpace=wrap;rounded=0;" vertex="1" parent="1">
          <mxGeometry x="240" y="260" width="150" height="30" as="geometry" />
        </mxCell>
      </root>
    </mxGraphModel>
  </diagram>
</mxfile>
